Patient4_TMGait_0pt4_02_right_03_EMG.mot
version=1
nRows=19
nColumns=33
inDegrees=no
endheader
time	1LAddLong	2LGlutMax	3LGlutMed	4LIliopsoas	5LSemiMemb	6LBicFemLong	7LRecFem	8LVastMed	9LVastLat	10LGasMed	11LTibAnt	12lTibPost	13LPeroneusLong	14LSol	15LExtDigLong	16LFlexDigLong	17RAddLong	18RGlutMax	19RGlutMed	20RIliopsoas	21RSemiMemb	22RBicFemLong	23RRecFem	24RVastMed	25RVastLat	26RGasMed	27RTibAnt	28RTibPost	29RPeroneusLong	30RSol	31RExtDigLong	32RFlexDigLong
4.21	-0.012207	-0.093536	-0.093079	-0.001984	0.027771	-0.30945	-0.04837	0.023956	-0.082855	0.12161	-0.000458	-0.006409	-0.12436	0.1886	0.011292	-0.009308	0.018768	-0.061798	0.065002	-0.14954	0.041504	0.17105	-0.30182	-0.037537	-0.05188	0.000916	-0.21668	-0.00061	-0.25559	-0.34225	-0.001373	-0.002441
4.211	-0.01358	-0.023804	-0.076599	-0.000916	0.050812	-0.18814	-0.006866	0.012817	-0.007019	0.12436	-0.007782	-0.010071	-0.034637	0.17151	0.008392	-0.000916	0.01358	-0.069275	-0.023346	-0.1088	0.061493	0.14404	-0.22064	-0.049591	-0.052948	-0.006714	-0.29846	-0.022888	-0.18478	-0.32227	-0.003357	-0.008392
4.212	0.002136	-0.025482	-0.054321	-0.002899	-0.00824	-0.023041	0.030365	0.011292	0.07843	0.020447	-0.014801	0.004425	-0.003662	0.05127	0.000458	0.004425	-0.001068	-0.03006	0.16556	-0.098877	-0.023956	0.12543	-0.23132	-0.087128	-0.045471	-0.004578	-0.18265	-0.015869	-0.11398	-0.17944	-0.003357	-0.006256
4.213	0.005646	-0.020447	-0.047455	-0.000916	-0.028534	0.08194	0.010223	0.001068	0.2713	-0.27908	-0.001984	0.007324	-0.0177	-0.02594	-0.009918	-0.005341	0.013428	-0.036011	0.34302	-0.02182	0.065308	0.029907	-0.24384	-0.069427	-0.037689	0.002441	0.49072	-0.010071	0.056915	-0.17059	-0.004578	0.001984
4.214	0.000916	0.031281	-0.052338	-0.009308	-0.016632	0.19745	0.027924	-0.00351	0.35095	-0.2182	-0.002441	0.00824	-0.024872	-0.012207	-0.003662	-0.003357	0.016022	0.002899	-0.018768	0.15274	0.076294	0.049286	-0.24582	-0.022583	-0.02182	0.005341	0.68558	-0.019226	0.27283	-0.18234	0.000153	-0.007019
4.215	0.000305	-0.025177	-0.092773	0.012512	0.048676	0.2713	0.051117	-0.009003	0.31647	-0.13321	0.011292	0.004578	-0.023193	0.026855	0.00351	-0.007782	0.026855	-0.12909	-0.046692	0.21225	0.021973	0.069427	-0.30899	-0.032654	-0.023041	-0.002136	0.33264	-0.015564	0.25101	-0.16327	0.003204	-0.008545
4.216	-0.010223	-0.049896	-0.024261	0.006409	0.044861	0.21927	0.007935	-0.013733	0.30762	-0.081635	0.00473	0.002899	-0.018158	0.05188	0.004272	-0.007477	0.013123	-0.14328	0.080414	0.2298	0.038147	0.017853	-0.27268	-0.036316	-0.050812	0.002594	-0.070496	-0.016022	-0.1236	-0.17807	-0.002899	-0.011902
4.217	-0.016174	-0.018005	-0.040894	-0.001678	-0.0177	-0.06546	0.023804	-0.01236	0.28351	-0.048065	-0.01236	0.000458	-0.018768	0.052643	0.002899	-0.006561	0.018616	-0.10239	0.15213	0.15457	-0.054626	0.030823	-0.2803	-0.050812	-0.049591	0.010681	-0.46036	-0.014648	-0.095062	-0.19882	-0.003357	-0.009918
4.218	-0.026245	0.020294	-0.021515	-0.006256	-0.021362	-0.24063	0.092468	0.006409	0.26245	-0.022888	-0.00824	0.002441	-0.032806	0.044098	0.006104	-0.012665	0.024872	-0.020752	0.14893	0.035095	0.023956	0.079193	-0.30441	-0.048828	-0.054474	0.024567	-0.50461	-0.014496	0.21713	-0.19943	-0.00824	-0.008545
4.219	-0.024872	0.036163	-0.013123	0.001221	0.029144	-0.46341	0.14938	0.003204	0.11231	-0.016785	-0.023041	0.004883	0.009918	0.050812	0.007935	-0.000916	0.024261	-0.032043	0.26855	0.048065	0.072021	0.06546	-0.31067	-0.048828	-0.048523	0.010529	-0.20111	-0.014343	0.34637	-0.13351	-0.001373	-0.010681
4.22	-0.023193	0.093842	0.02182	-0.007019	-0.005493	-0.50476	0.21454	0.016937	-0.13992	-0.003052	-0.064392	0.007629	0.11398	0.048065	0.016327	0.007172	0.031128	-0.076752	-0.19257	0.05722	0.06546	0.045471	-0.30762	-0.006409	-0.045471	0.005798	0.25192	-0.012054	0.11322	0.042877	-0.006714	-0.016937
4.221	-0.021057	0.17364	0.056915	0.015869	0.035553	-0.39581	0.20523	0.009918	-0.34073	0.03891	-0.005951	0.001373	0.17471	0.05249	0.017242	-0.001373	0.020447	-0.13519	-0.31418	0.00061	0.10696	-0.000916	-0.31433	0.035858	-0.042572	0.008087	0.27878	-0.013275	-0.55252	0.023499	0.006409	-0.021362
4.222	-0.012054	0.20615	0.053253	0.007019	0.05722	-0.18951	0.063629	0.00885	-0.28488	0.074158	-0.027161	0.004272	0.19043	0.021362	-0.006561	0.004272	0.027161	-0.090179	-0.31769	0.00824	0.07843	-0.074463	-0.34821	0.004272	-0.054016	0.00946	-0.04837	-0.012054	-0.51254	0.037384	-0.002441	-0.014954
4.223	-0.009155	0.20599	0.021057	-0.004272	-0.048676	-0.14053	-0.045929	0.009155	-0.14648	0.012665	-0.035553	-0.002289	0.16434	0.035095	-0.014343	-0.002899	0.016327	-0.058594	-0.20371	0.065155	0.031433	-0.046692	-0.33646	0.030823	-0.048676	0.011292	-0.096436	-0.013123	0.11337	-0.056763	-0.002441	-0.0177
4.224	-0.016022	0.2272	-0.021667	-0.008392	-0.1358	-0.071869	-0.066223	-0.010681	-0.014801	-0.015106	-0.00946	0.006561	-0.11566	0.058899	0.007629	0.007019	-0.009613	-0.085602	0.12802	-0.000763	-0.047455	-0.038605	-0.33173	0.003662	-0.040588	0.008392	-0.031586	-0.007477	0.090179	-0.094604	0.001221	-0.013123
4.225	0.011902	0.21622	-0.03418	-0.020447	-0.090179	-0.035095	-0.021973	-0.016327	0.075989	-0.032654	0.019379	0.005035	-0.26062	0.044708	0.006104	0.00061	-0.000458	-0.12589	-0.18814	-0.14053	-0.088501	-0.084381	-0.32944	-0.020752	-0.039825	0.009003	0.074158	-0.011292	0.10376	-0.08606	-0.001831	-0.006256
4.226	0.003357	0.22827	-0.010986	-0.007324	-0.093994	-0.041199	0.023651	-0.023651	0.11444	-0.037689	0.020294	0.005035	-0.20432	0.025482	-0.008392	0.001221	-0.007782	-0.11917	0.099182	-0.11734	-0.093079	-0.088196	-0.3598	-0.038757	-0.044098	0.019073	-0.075836	-0.010223	-0.64743	-0.005493	-0.002441	-0.006561
4.227	0.014648	0.22614	0.02243	-0.000458	-0.069275	-0.16678	-0.017242	-0.034637	0.057678	0.009308	0.053864	0.008698	-0.21469	-0.037384	-0.056763	0.005493	0.010223	-0.18631	-0.10727	0.028534	-0.10315	-0.013885	-0.38788	-0.010834	-0.028534	0.018921	-0.057526	-0.009766	-0.15854	0.06073	-0.000763	-0.019531
4.228	0.012054	0.21652	0.058441	0.000763	0.077972	-0.15625	0.022736	-0.028839	-0.17639	0.001526	0.035095	0.006866	-0.058289	-0.006866	-0.052643	-0.002594	0.022583	-0.15778	-0.32486	0.16815	-0.10315	0.011902	-0.38208	0.002136	-0.019989	0.00824	-0.02121	-0.00946	0.19699	0.089417	-0.001831	-0.021057
